<svg id="Layer_1" data-name="Layer 1" xmlns="http://www.w3.org/2000/svg" viewBox="0 0 108 108">
  <defs>
    <style>
      .cls-1, .cls-2 {
        fill: none;
        stroke: #000;
        stroke-linejoin: round;
        stroke-width: 3px;
      }

      .cls-1 {
        stroke-linecap: round;
      }
    </style>
  </defs>
  <g>
    <g>
      <path class="cls-1" d="M38.21,41.28h12s2.53.5,2.53,3.78-2.37,3.88-2.37,3.88H38.21a3.94,3.94,0,0,1,0-7.66Z"/>
      <path class="cls-1" d="M38.21,48.94h12s2.53.5,2.53,3.78-2.37,3.87-2.37,3.87H38.21a3.94,3.94,0,0,1,0-7.65Z"/>
      <path class="cls-1" d="M38.21,56.59h12s2.53.51,2.53,3.79-2.37,3.87-2.37,3.87H38.21a3.94,3.94,0,0,1,0-7.66Z"/>
      <path class="cls-1" d="M38.57,64.25h12s2.53.51,2.53,3.79-2.37,3.87-2.37,3.87H38.57a3.94,3.94,0,0,1,0-7.66Z"/>
      <path class="cls-1" d="M72.93,71.91H91.51V43.33H86.69a6.89,6.89,0,0,1-5.45-2.61l-5-5c-2.73-2.72-4.5-2.21-4.5-2.21H58.5V37s.64,5.14,6.87,5.14h5.29"/>
      <path class="cls-1" d="M66.69,42.15a4,4,0,0,0,1,1c4.34,3,7.12,10,7.3,14.35C75.72,74,66.56,81.11,61.7,82.78s-11.22.72-13.22-.47A9.66,9.66,0,0,1,44,74.45a10.73,10.73,0,0,1,.41-2.54"/>
      <path class="cls-1" d="M41.69,41.28A9,9,0,0,1,41,38.82c-.45-4.43.36-7.18,3.35-10.17s7.25-4.11,11.9-4.31c3.7-.16,8.05.73,10.44,5.35a6.22,6.22,0,0,1,.56,3.62"/>
    </g>
    <g>
      <line class="cls-2" x1="14.45" y1="56.31" x2="24.21" y2="56.48"/>
      <polygon points="22.82 60.95 30.67 56.59 22.98 51.97 22.82 60.95"/>
    </g>
    <g>
      <line class="cls-2" x1="93.55" y1="25.96" x2="84.58" y2="29.81"/>
      <polygon points="84.02 25.17 78.64 32.35 87.55 33.42 84.02 25.17"/>
    </g>
  </g>
</svg>
