<svg width="46" height="44" viewBox="0 0 46 44" fill="none" xmlns="http://www.w3.org/2000/svg">
<path d="M22.7556 24.4002L15.7111 15.4002C15.7111 15.4002 14.1722 14.2891 12.7889 15.4002C11.4056 16.5113 12.3278 18.2224 12.3278 18.2224L21.5889 30.0335L18.1944 29.6169C17.6209 29.7338 17.1029 30.0389 16.7224 30.4838C16.342 30.9286 16.121 31.4877 16.0944 32.0724C16.0327 32.6609 16.1683 33.2532 16.4801 33.7561C16.7919 34.259 17.2621 34.6439 17.8167 34.8502L29.8222 36.5169L35.0722 43.228L44.6667 35.7446L39.3389 28.9058C39.3389 28.9058 39.2556 24.6669 37.9222 22.9669L27.8333 10.0669C27.8333 10.0669 26.3667 8.86687 24.9722 9.95576C23.5778 11.0446 24.5167 12.7335 24.5167 12.7335" stroke="white" stroke-linecap="round" stroke-linejoin="round"/>
<path d="M26.1111 21.7778L18 11.3834C18 11.3834 16.5111 10.1778 15.1333 11.2556C14.7473 11.5495 14.4749 11.968 14.3625 12.4399C14.2501 12.9118 14.3046 13.4082 14.5166 13.8445L15.9666 15.6945" stroke="white" stroke-linecap="round" stroke-linejoin="round"/>
<path d="M29.5056 19.1224L22.2333 9.82239C21.8427 9.51605 21.3607 9.34935 20.8642 9.34888C20.3678 9.3484 19.8855 9.51418 19.4942 9.81976C19.103 10.1253 18.8253 10.5531 18.7055 11.0349C18.5858 11.5167 18.6308 12.0247 18.8333 12.4779" stroke="white" stroke-linecap="round" stroke-linejoin="round"/>
<path d="M21.3333 35.928C20.1402 36.2237 18.9252 36.4225 17.7 36.5224C17.3445 36.5224 16.7945 39.2169 16.7945 39.2169C16.7945 39.2169 15.9445 36.3947 15.6 36.328C15.0778 36.228 13.1278 42.0669 13.1278 42.0669C13.1278 42.0669 13.2889 35.6336 12.9167 35.4613C12.365 35.1948 11.8355 34.8845 11.3333 34.5336C10.6611 34.0724 5.61668 38.9224 5.61668 38.9224C5.61668 38.9224 8.83334 32.1891 8.55557 31.7836C8.19445 31.2836 4.55557 32.2947 4.55557 32.2947C4.55557 32.2947 7.16112 29.2224 6.99446 28.6669C6.65001 27.6113 1.33334 25.8169 1.33334 25.8169C1.33334 25.8169 6.5389 23.9336 6.65001 23.2947C6.79445 22.4947 4.91112 20.6002 4.91112 20.6002C4.91112 20.6002 7.54446 20.4724 7.6889 20.2169C7.92223 19.7502 5.85001 16.6836 5.85001 16.6836C5.85001 16.6836 9.11112 18.028 9.46668 17.6447C9.65557 17.4391 9.85557 17.2391 10.0556 17.0502C10.5611 16.5724 10.2167 13.8391 10.2167 13.8391C10.2167 13.8391 12.0556 15.5502 12.2389 15.4447C13.0379 14.9965 13.8886 14.6476 14.7722 14.4058" stroke="white" stroke-linecap="round" stroke-linejoin="round"/>
<path d="M19.7056 0.733398C17.6192 1.09267 15.6602 1.98225 14.0167 3.31673C12.4834 4.48895 11.0056 6.53895 9.91113 8.27784" stroke="white" stroke-linejoin="round"/>
<path d="M8.14447 6.41113L8.13892 11.4L12.4611 8.91113L8.14447 6.41113Z" fill="white"/>
</svg>
