<svg width="322" height="296" viewBox="0 0 322 296" fill="none" xmlns="http://www.w3.org/2000/svg">
<path d="M61.4668 18.1676L61.4668 172.892C61.4668 175.942 63.939 178.414 66.9885 178.414H281.521C284.571 178.414 287.043 175.942 287.043 172.892V18.1676C287.043 15.1181 284.571 12.6459 281.521 12.6459H66.9885C63.939 12.6459 61.4668 15.1181 61.4668 18.1676Z" fill="#F0F0F0"/>
<path d="M25.9297 18.0531L25.9297 173.006C25.9297 182.358 33.5107 189.939 42.8623 189.939L304.042 189.939C313.394 189.939 320.975 182.358 320.975 173.006V18.0531C320.975 8.70145 313.394 1.12042 304.042 1.12042L42.8623 1.12042C33.5107 1.12042 25.9297 8.70145 25.9297 18.0531Z" stroke="black" stroke-miterlimit="10"/>
<path d="M25.9297 87.2438C25.9297 84.8032 26.8991 82.4625 28.6248 80.7366C30.3505 79.0107 32.691 78.0409 35.1317 78.0405H311.772C314.212 78.0405 316.553 79.0102 318.279 80.7361C320.005 82.4621 320.975 84.803 320.975 87.2438" stroke="black" stroke-miterlimit="10"/>
<path d="M25.9297 112.669H57.3185C58.8769 112.669 60.1443 113.822 60.1443 115.245V147.664C60.1443 149.092 58.8795 150.242 57.3185 150.242H25.9297" stroke="black" stroke-miterlimit="10"/>
<path d="M65.5664 29.4602V58.1816C65.5664 63.4674 69.8514 67.7524 75.1372 67.7524L273.373 67.7524C278.659 67.7524 282.944 63.4674 282.944 58.1816V29.4602C282.944 24.1744 278.659 19.8894 273.373 19.8894L75.1372 19.8894C69.8514 19.8894 65.5664 24.1744 65.5664 29.4602Z" stroke="black" stroke-miterlimit="10"/>
<path d="M99.7773 25.439V62.2041H120.086V25.439H99.7773Z" stroke="black" stroke-miterlimit="10"/>
<path d="M108.233 52.3486V54.0459H109.931V52.3486H108.233Z" fill="black" stroke="black" stroke-miterlimit="10"/>
<path d="M108.233 42.9736V44.6709H109.931V42.9736H108.233Z" fill="black" stroke="black" stroke-miterlimit="10"/>
<path d="M108.232 33.6006V35.2979H109.93V33.6006H108.232Z" fill="black" stroke="black" stroke-miterlimit="10"/>
<path d="M125.507 25.439V62.2041H145.816V25.439H125.507Z" stroke="black" stroke-miterlimit="10"/>
<path d="M133.964 52.3476V54.0449H135.661V52.3476H133.964Z" fill="black" stroke="black" stroke-miterlimit="10"/>
<path d="M133.964 42.9741V44.6714H135.661V42.9741H133.964Z" fill="black" stroke="black" stroke-miterlimit="10"/>
<path d="M133.962 33.5991V35.2964H135.659V33.5991H133.962Z" fill="black" stroke="black" stroke-miterlimit="10"/>
<path d="M151.236 25.44V62.2051H171.545V25.44H151.236Z" stroke="black" stroke-miterlimit="10"/>
<path d="M159.692 52.3471V54.0444H161.39V52.3471H159.692Z" fill="black" stroke="black" stroke-miterlimit="10"/>
<path d="M159.692 42.9736V44.6709H161.39V42.9736H159.692Z" fill="black" stroke="black" stroke-miterlimit="10"/>
<path d="M159.692 33.6006V35.2979H161.39V33.6006H159.692Z" fill="black" stroke="black" stroke-miterlimit="10"/>
<path d="M176.966 25.44V62.2051H197.275V25.44H176.966Z" stroke="black" stroke-miterlimit="10"/>
<path d="M185.422 52.3471V54.0444H187.119V52.3471H185.422Z" fill="black" stroke="black" stroke-miterlimit="10"/>
<path d="M185.424 42.9736V44.6709H187.121V42.9736H185.424Z" fill="black" stroke="black" stroke-miterlimit="10"/>
<path d="M185.422 33.6006V35.2979H187.119V33.6006H185.422Z" fill="black" stroke="black" stroke-miterlimit="10"/>
<path d="M202.696 25.44V62.2051H223.005V25.44H202.696Z" stroke="black" stroke-miterlimit="10"/>
<path d="M211.153 52.3471V54.0444H212.851V52.3471H211.153Z" fill="black" stroke="black" stroke-miterlimit="10"/>
<path d="M211.153 42.9741V44.6714H212.851V42.9741H211.153Z" fill="black" stroke="black" stroke-miterlimit="10"/>
<path d="M211.151 33.6006V35.2979H212.849V33.6006H211.151Z" fill="black" stroke="black" stroke-miterlimit="10"/>
<path d="M228.426 25.4385V62.2036H248.735V25.4385H228.426Z" stroke="black" stroke-miterlimit="10"/>
<path d="M236.884 52.3486V54.0459H238.581V52.3486H236.884Z" fill="black" stroke="black" stroke-miterlimit="10"/>
<path d="M236.884 42.9741V44.6714H238.581V42.9741H236.884Z" fill="black" stroke="black" stroke-miterlimit="10"/>
<path d="M236.882 33.6006V35.2979H238.579V33.6006H236.882Z" fill="black" stroke="black" stroke-miterlimit="10"/>
<path d="M254.155 25.4385V62.2036H274.464V25.4385H254.155Z" stroke="black" stroke-miterlimit="10"/>
<path d="M262.612 52.3472V54.0444H264.31V52.3472H262.612Z" fill="black" stroke="black" stroke-miterlimit="10"/>
<path d="M262.612 42.9736V44.6709H264.31V42.9736H262.612Z" fill="black" stroke="black" stroke-miterlimit="10"/>
<path d="M262.61 33.5991V35.2964H264.308V33.5991H262.61Z" fill="black" stroke="black" stroke-miterlimit="10"/>
<path d="M74.0479 25.4405V62.2056H94.3569V25.4405H74.0479Z" stroke="black" stroke-miterlimit="10"/>
<path d="M82.5039 52.3476V54.0449H84.2012V52.3476H82.5039Z" fill="black" stroke="black" stroke-miterlimit="10"/>
<path d="M82.5039 42.9741V44.6714H84.2012V42.9741H82.5039Z" fill="black" stroke="black" stroke-miterlimit="10"/>
<path d="M82.5029 33.6011V35.2983H84.2002V33.6011H82.5029Z" fill="black" stroke="black" stroke-miterlimit="10"/>
<path d="M42.8627 27.0258C47.8179 27.0258 51.8349 23.0089 51.8349 18.0537C51.8349 13.0985 47.8179 9.08154 42.8627 9.08154C37.9076 9.08154 33.8906 13.0985 33.8906 18.0537C33.8906 23.0089 37.9076 27.0258 42.8627 27.0258Z" stroke="black" stroke-miterlimit="10"/>
<path d="M304.041 27.0258C308.997 27.0258 313.014 23.0089 313.014 18.0537C313.014 13.0985 308.997 9.08154 304.041 9.08154C299.086 9.08154 295.069 13.0985 295.069 18.0537C295.069 23.0089 299.086 27.0258 304.041 27.0258Z" stroke="black" stroke-miterlimit="10"/>
<path d="M304.041 181.977C308.997 181.977 313.014 177.96 313.014 173.005C313.014 168.05 308.997 164.033 304.041 164.033C299.086 164.033 295.069 168.05 295.069 173.005C295.069 177.96 299.086 181.977 304.041 181.977Z" stroke="black" stroke-miterlimit="10"/>
<path d="M42.8627 181.977C47.8179 181.977 51.8349 177.96 51.8349 173.005C51.8349 168.05 47.8179 164.033 42.8627 164.033C37.9076 164.033 33.8906 168.05 33.8906 173.005C33.8906 177.96 37.9076 181.977 42.8627 181.977Z" stroke="black" stroke-miterlimit="10"/>
<path d="M69.3135 99.1841V163.727H223.005V99.1841L69.3135 99.1841Z" fill="#CACACA"/>
<path d="M61.4668 117.84V145.069H95.2308V117.84H61.4668Z" fill="#CACACA" stroke="white" stroke-miterlimit="10"/>
<path d="M124.26 113.754L106.559 131.455L124.26 149.156L141.961 131.455L124.26 113.754Z" stroke="white" stroke-miterlimit="10"/>
<path d="M236.881 134.285V181.978H268.931V134.285H236.881Z" fill="#CACACA"/>
<path d="M239.813 128.694V134.286H265.655V128.694H239.813Z" fill="#CACACA"/>
<path d="M234.12 189.939V186.155C234.12 184.597 235.273 183.329 236.697 183.329H269.123C270.551 183.329 271.699 184.595 271.699 186.155V189.939" stroke="black" stroke-miterlimit="10"/>
<path d="M250.387 152.234V158.722H255.079V152.234H250.387Z" fill="#3A3A3A"/>
<path d="M252.733 145.959L247.347 152.235H258.121L252.733 145.959Z" fill="#3A3A3A"/>
<path d="M49.2747 220.734L55.7627 220.734L55.7627 216.042L49.2747 216.042L49.2747 220.734Z" fill="#3A3A3A"/>
<path d="M43 218.388L49.2761 223.774L49.2761 213L43 218.388Z" fill="#3A3A3A"/>
<path d="M12.4478 213.638H10.4766V221.763H12.4478V213.638Z" fill="#3A3A3A"/>
<path d="M24.3521 213.638H22.3809V221.763H24.3521V213.638Z" fill="#3A3A3A"/>
<path d="M16.485 225.997H18.3031C18.6936 225.997 19.0682 226.152 19.3444 226.428C19.6205 226.704 19.7757 227.079 19.7757 227.469V231.516H15.0098V227.469C15.0098 227.276 15.0479 227.084 15.1221 226.905C15.1963 226.726 15.305 226.564 15.442 226.427C15.579 226.29 15.7417 226.182 15.9206 226.108C16.0996 226.034 16.2914 225.996 16.485 225.997Z" fill="#3A3A3A"/>
<path d="M27.693 233.926C27.693 233.926 34.1458 230.211 34.1458 220.85C34.1458 211.49 27.6904 207.774 27.6904 207.774H7.45541C7.45541 207.774 1 211.49 1 220.85C1 230.211 7.45541 233.926 7.45541 233.926H27.693Z" stroke="#3A3A3A" stroke-width="1.5" stroke-miterlimit="10"/>
<path d="M84.0254 201H110.055C113.472 201 116.749 202.357 119.165 204.774C121.581 207.19 122.938 210.467 122.938 213.884V262.841C122.938 266.258 121.581 269.535 119.165 271.951C116.749 274.367 113.472 275.725 110.055 275.725H84.0254V201Z" fill="#3A3A3A" stroke="#3A3A3A" stroke-miterlimit="10"/>
<path d="M84.2888 208.236H77.1426V229.041H84.2888V208.236Z" fill="#3A3A3A" stroke="#3A3A3A" stroke-miterlimit="10"/>
<path d="M64.2978 215.2H77.1424V222.075H64.2978C63.3861 222.075 62.5118 221.713 61.8671 221.068C61.2225 220.424 60.8604 219.549 60.8604 218.638C60.8604 217.726 61.2225 216.852 61.8671 216.207C62.5118 215.562 63.3861 215.2 64.2978 215.2Z" stroke="#3A3A3A" stroke-miterlimit="10"/>
<path d="M64.4982 220.292C65.4119 220.292 66.1526 219.552 66.1526 218.638C66.1526 217.724 65.4119 216.983 64.4982 216.983C63.5845 216.983 62.8438 217.724 62.8438 218.638C62.8438 219.552 63.5845 220.292 64.4982 220.292Z" fill="white" stroke="#3A3A3A" stroke-miterlimit="10"/>
<path d="M252.732 217.439V284.935C252.732 289.768 249.279 293.686 245.018 293.686H107.495C103.236 293.686 99.7812 289.768 99.7812 284.935V272.866" stroke="#3A3A3A" stroke-width="4" stroke-miterlimit="10"/>
<path d="M263.294 186.6H241.535C240.687 186.6 240 187.094 240 187.704V217.643C240 218.253 240.687 218.747 241.535 218.747H263.294C264.142 218.747 264.83 218.253 264.83 217.643V187.704C264.83 187.094 264.142 186.6 263.294 186.6Z" fill="#3A3A3A" stroke="#3A3A3A" stroke-miterlimit="10"/>
<path d="M262.273 222.02H242.556C241.99 222.02 241.531 222.349 241.531 222.756V225.508C241.531 225.914 241.99 226.244 242.556 226.244H262.273C262.839 226.244 263.297 225.914 263.297 225.508V222.756C263.297 222.349 262.839 222.02 262.273 222.02Z" fill="#3A3A3A" stroke="#3A3A3A" stroke-miterlimit="10"/>
<path d="M261.616 228.293H243.216C242.65 228.293 242.191 228.623 242.191 229.029V231.781C242.191 232.188 242.65 232.517 243.216 232.517H261.616C262.182 232.517 262.641 232.188 262.641 231.781V229.029C262.641 228.623 262.182 228.293 261.616 228.293Z" fill="#3A3A3A" stroke="#3A3A3A" stroke-miterlimit="10"/>
<path d="M260.765 234.567H244.064C243.499 234.567 243.04 234.897 243.04 235.303V238.055C243.04 238.462 243.499 238.791 244.064 238.791H260.765C261.331 238.791 261.789 238.462 261.789 238.055V235.303C261.789 234.897 261.331 234.567 260.765 234.567Z" fill="#3A3A3A" stroke="#3A3A3A" stroke-miterlimit="10"/>
<path d="M258.692 167.027H246.136V186.6H258.692V167.027Z" fill="white" stroke="#3A3A3A" stroke-miterlimit="10"/>
<path d="M248.696 164H256.132C256.811 164 257.462 164.194 257.942 164.539C258.422 164.884 258.692 165.352 258.692 165.84V167.027H246.135V165.836C246.136 165.349 246.407 164.881 246.887 164.537C247.367 164.193 248.018 164 248.696 164Z" fill="#3A3A3A" stroke="#3A3A3A" stroke-miterlimit="10"/>
</svg>
