<svg width="340" height="254" viewBox="0 0 340 254" fill="none" xmlns="http://www.w3.org/2000/svg">
<path d="M77.4297 18.5473L77.4297 174.771C77.4297 177.85 79.9258 180.346 83.0049 180.346H299.615C302.694 180.346 305.19 177.85 305.19 174.771V18.5473C305.19 15.4682 302.694 12.9721 299.615 12.9721H83.0049C79.9258 12.9721 77.4297 15.4682 77.4297 18.5473Z" fill="#F0F0F0"/>
<path d="M41.5488 18.4317L41.5488 174.886C41.5488 184.328 49.2033 191.982 58.6455 191.982L322.355 191.982C331.797 191.982 339.452 184.328 339.452 174.886V18.4317C339.452 8.98952 331.797 1.33507 322.355 1.33507L58.6455 1.33507C49.2033 1.33507 41.5488 8.98952 41.5488 18.4317Z" stroke="black" stroke-miterlimit="10"/>
<path d="M41.5488 88.2919C41.5488 85.8276 42.5277 83.4643 44.2701 81.7217C46.0124 79.979 48.3757 78.9999 50.8399 78.9995H330.159C332.624 78.9995 334.987 79.9785 336.73 81.7212C338.473 83.4639 339.452 85.8274 339.452 88.2919" stroke="black" stroke-miterlimit="10"/>
<path d="M41.5488 113.964H73.2416C74.8151 113.964 76.0948 115.129 76.0948 116.566V149.298C76.0948 150.741 74.8177 151.901 73.2416 151.901H41.5488" stroke="black" stroke-miterlimit="10"/>
<path d="M81.5703 29.9487V58.9483C81.5703 64.2853 85.8968 68.6118 91.2338 68.6118L291.39 68.6118C296.727 68.6118 301.053 64.2853 301.053 58.9483V29.9487C301.053 24.6118 296.727 20.2853 291.39 20.2853L91.2338 20.2853C85.8968 20.2853 81.5703 24.6118 81.5703 29.9487Z" stroke="black" stroke-miterlimit="10"/>
<path d="M116.11 25.8896V63.0107H136.616V25.8896H116.11Z" stroke="black" stroke-miterlimit="10"/>
<path d="M124.65 53.0607V54.7744H126.364V53.0607H124.65Z" fill="black" stroke="black" stroke-miterlimit="10"/>
<path d="M124.65 43.5949V45.3086H126.364V43.5949H124.65Z" fill="black" stroke="black" stroke-miterlimit="10"/>
<path d="M124.648 34.131V35.8447H126.362V34.131H124.648Z" fill="black" stroke="black" stroke-miterlimit="10"/>
<path d="M142.09 25.8896V63.0107H162.596V25.8896H142.09Z" stroke="black" stroke-miterlimit="10"/>
<path d="M150.63 53.0587V54.7725H152.344V53.0587H150.63Z" fill="black" stroke="black" stroke-miterlimit="10"/>
<path d="M150.63 43.5944V45.3081H152.344V43.5944H150.63Z" fill="black" stroke="black" stroke-miterlimit="10"/>
<path d="M150.628 34.129V35.8428H152.342V34.129H150.628Z" fill="black" stroke="black" stroke-miterlimit="10"/>
<path d="M168.068 25.8906V63.0117H188.574V25.8906H168.068Z" stroke="black" stroke-miterlimit="10"/>
<path d="M176.607 53.0587V54.7725H178.321V53.0587H176.607Z" fill="black" stroke="black" stroke-miterlimit="10"/>
<path d="M176.607 43.5944V45.3081H178.321V43.5944H176.607Z" fill="black" stroke="black" stroke-miterlimit="10"/>
<path d="M176.607 34.1305V35.8442H178.321V34.1305H176.607Z" fill="black" stroke="black" stroke-miterlimit="10"/>
<path d="M194.046 25.8906V63.0117H214.552V25.8906H194.046Z" stroke="black" stroke-miterlimit="10"/>
<path d="M202.585 53.0587V54.7725H204.299V53.0587H202.585Z" fill="black" stroke="black" stroke-miterlimit="10"/>
<path d="M202.587 43.5944V45.3081H204.301V43.5944H202.587Z" fill="black" stroke="black" stroke-miterlimit="10"/>
<path d="M202.585 34.1305V35.8442H204.299V34.1305H202.585Z" fill="black" stroke="black" stroke-miterlimit="10"/>
<path d="M220.026 25.8906V63.0117H240.532V25.8906H220.026Z" stroke="black" stroke-miterlimit="10"/>
<path d="M228.563 53.0587V54.7725H230.277V53.0587H228.563Z" fill="black" stroke="black" stroke-miterlimit="10"/>
<path d="M228.563 43.5944V45.3081H230.277V43.5944H228.563Z" fill="black" stroke="black" stroke-miterlimit="10"/>
<path d="M228.563 34.1305V35.8442H230.277V34.1305H228.563Z" fill="black" stroke="black" stroke-miterlimit="10"/>
<path d="M246.005 25.8896V63.0107H266.511V25.8896H246.005Z" stroke="black" stroke-miterlimit="10"/>
<path d="M254.545 53.0597V54.7734H256.259V53.0597H254.545Z" fill="black" stroke="black" stroke-miterlimit="10"/>
<path d="M254.545 43.5944V45.3081H256.259V43.5944H254.545Z" fill="black" stroke="black" stroke-miterlimit="10"/>
<path d="M254.543 34.1305V35.8442H256.257V34.1305H254.543Z" fill="black" stroke="black" stroke-miterlimit="10"/>
<path d="M271.982 25.8896V63.0107H292.488V25.8896H271.982Z" stroke="black" stroke-miterlimit="10"/>
<path d="M280.522 53.0592V54.7729H282.236V53.0592H280.522Z" fill="black" stroke="black" stroke-miterlimit="10"/>
<path d="M280.522 43.5949V45.3086H282.236V43.5949H280.522Z" fill="black" stroke="black" stroke-miterlimit="10"/>
<path d="M280.521 34.1291V35.8428H282.234V34.1291H280.521Z" fill="black" stroke="black" stroke-miterlimit="10"/>
<path d="M90.1318 25.8911V63.0122H110.638V25.8911H90.1318Z" stroke="black" stroke-miterlimit="10"/>
<path d="M98.6719 53.0592V54.7729H100.386V53.0592H98.6719Z" fill="black" stroke="black" stroke-miterlimit="10"/>
<path d="M98.6719 43.5949V45.3086H100.386V43.5949H98.6719Z" fill="black" stroke="black" stroke-miterlimit="10"/>
<path d="M98.6699 34.131V35.8447H100.384V34.131H98.6699Z" fill="black" stroke="black" stroke-miterlimit="10"/>
<path d="M58.6459 27.4911C63.6491 27.4911 67.7049 23.4352 67.7049 18.4321C67.7049 13.4289 63.6491 9.37305 58.6459 9.37305C53.6428 9.37305 49.5869 13.4289 49.5869 18.4321C49.5869 23.4352 53.6428 27.4911 58.6459 27.4911Z" stroke="black" stroke-miterlimit="10"/>
<path d="M322.355 27.4911C327.358 27.4911 331.414 23.4352 331.414 18.4321C331.414 13.4289 327.358 9.37305 322.355 9.37305C317.352 9.37305 313.296 13.4289 313.296 18.4321C313.296 23.4352 317.352 27.4911 322.355 27.4911Z" stroke="black" stroke-miterlimit="10"/>
<path d="M322.355 183.944C327.358 183.944 331.414 179.888 331.414 174.885C331.414 169.882 327.358 165.826 322.355 165.826C317.352 165.826 313.296 169.882 313.296 174.885C313.296 179.888 317.352 183.944 322.355 183.944Z" stroke="black" stroke-miterlimit="10"/>
<path d="M58.6459 183.944C63.6491 183.944 67.7049 179.888 67.7049 174.885C67.7049 169.882 63.6491 165.826 58.6459 165.826C53.6428 165.826 49.5869 169.882 49.5869 174.885C49.5869 179.888 53.6428 183.944 58.6459 183.944Z" stroke="black" stroke-miterlimit="10"/>
<path d="M85.3516 100.349V165.516H240.531V100.349L85.3516 100.349Z" fill="#CACACA"/>
<path d="M77.4297 119.186V146.679H111.521V119.186H77.4297Z" fill="#CACACA" stroke="white" stroke-miterlimit="10"/>
<path d="M140.833 115.06L122.96 132.933L140.833 150.805L158.705 132.933L140.833 115.06Z" stroke="white" stroke-miterlimit="10"/>
<path d="M254.544 135.788V183.943H286.904V135.788H254.544Z" fill="#CACACA"/>
<path d="M257.504 130.145V135.791H283.595V130.145H257.504Z" fill="#CACACA"/>
<path d="M251.756 191.983V188.162C251.756 186.588 252.92 185.309 254.357 185.309H287.098C288.54 185.309 289.699 186.587 289.699 188.162V191.983" stroke="black" stroke-miterlimit="10"/>
<path d="M91.6269 130.563H85.0762V135.301H91.6269V130.563Z" fill="#3A3A3A"/>
<path d="M97.963 132.932L91.626 127.493V138.372L97.963 132.932Z" fill="#3A3A3A"/>
<path d="M100.397 223.298H129.742V252.948H100.397C99.5095 252.948 98.6587 252.595 98.0314 251.968C97.4042 251.341 97.0518 250.49 97.0518 249.603V226.643C97.0518 225.756 97.4042 224.905 98.0314 224.278C98.6587 223.65 99.5095 223.298 100.397 223.298Z" fill="#3A3A3A" stroke="#3A3A3A" stroke-miterlimit="10"/>
<path d="M101.895 240.141C102.856 240.141 103.636 239.361 103.636 238.399C103.636 237.438 102.856 236.658 101.895 236.658C100.933 236.658 100.153 237.438 100.153 238.399C100.153 239.361 100.933 240.141 101.895 240.141Z" fill="white"/>
<path d="M123.653 238.399H103.635" stroke="white" stroke-miterlimit="10"/>
<path d="M114.825 234.481H110.813L106.679 238.352" stroke="white" stroke-miterlimit="10"/>
<path d="M109.651 238.399L113.644 242.389H119.155" stroke="white" stroke-miterlimit="10"/>
<path d="M116.014 235.911C116.804 235.911 117.444 235.27 117.444 234.48C117.444 233.69 116.804 233.05 116.014 233.05C115.223 233.05 114.583 233.69 114.583 234.48C114.583 235.27 115.223 235.911 116.014 235.911Z" fill="white"/>
<path d="M123.489 240.353V236.348L126.957 238.351L123.489 240.353Z" fill="white"/>
<path d="M153.107 225.647H129.741V250.727H153.107V225.647Z" stroke="#3A3A3A" stroke-miterlimit="10"/>
<path d="M81.8521 232.958H95.9251V243.474H81.8521C81.4578 243.474 81.0796 243.318 80.8007 243.039C80.5219 242.76 80.3652 242.382 80.3652 241.987V234.444C80.3656 234.05 80.5224 233.672 80.8012 233.394C81.08 233.115 81.458 232.958 81.8521 232.958Z" fill="#3A3A3A" stroke="#3A3A3A" stroke-miterlimit="10"/>
<path d="M121.327 241.344H119.009V243.662H121.327V241.344Z" fill="white"/>
<path d="M141.423 247.759H145.609V242.142H141.423V247.759Z" fill="#3A3A3A" stroke="#3A3A3A" stroke-miterlimit="10"/>
<path d="M141.423 234.233H145.609V228.616H141.423V234.233Z" fill="#3A3A3A" stroke="#3A3A3A" stroke-miterlimit="10"/>
<path d="M80.3656 238.399H11.7221C9.15916 238.399 6.70122 237.381 4.88896 235.569C3.07671 233.757 2.05859 231.299 2.05859 228.736V142.638C2.05859 140.075 3.07671 137.617 4.88896 135.804C6.70122 133.992 9.15916 132.974 11.7221 132.974H17.507" stroke="#3A3A3A" stroke-width="4" stroke-miterlimit="10"/>
<path d="M37.5392 122.416H66.885V143.448H37.5392C36.6521 143.448 35.8013 143.096 35.174 142.469C34.5467 141.841 34.1943 140.991 34.1943 140.104V125.76C34.1943 124.873 34.5467 124.022 35.174 123.395C35.8013 122.768 36.6521 122.416 37.5392 122.416Z" fill="#3A3A3A" stroke="#3A3A3A" stroke-miterlimit="10"/>
<path d="M39.0372 134.72C39.9988 134.72 40.7784 133.941 40.7784 132.979C40.7784 132.017 39.9988 131.238 39.0372 131.238C38.0755 131.238 37.2959 132.017 37.2959 132.979C37.2959 133.941 38.0755 134.72 39.0372 134.72Z" fill="white"/>
<path d="M60.7953 132.978H40.7773" stroke="white" stroke-miterlimit="10"/>
<path d="M51.9667 129.062H47.9558L43.8203 132.931" stroke="white" stroke-miterlimit="10"/>
<path d="M46.7939 132.978L50.7852 136.968H56.2975" stroke="white" stroke-miterlimit="10"/>
<path d="M53.1551 130.492C53.9452 130.492 54.5856 129.852 54.5856 129.062C54.5856 128.272 53.9452 127.631 53.1551 127.631C52.3651 127.631 51.7246 128.272 51.7246 129.062C51.7246 129.852 52.3651 130.492 53.1551 130.492Z" fill="white"/>
<path d="M60.6299 134.935V130.93L64.0993 132.932L60.6299 134.935Z" fill="white"/>
<path d="M83.8402 127.103H66.8838V138.761H83.8402V127.103Z" fill="white" stroke="#3A3A3A" stroke-miterlimit="10"/>
<path d="M73.2422 129.997H81.5577" stroke="#3A3A3A" stroke-miterlimit="10" stroke-linecap="round"/>
<path d="M73.2422 136.355H81.5577" stroke="#3A3A3A" stroke-miterlimit="10" stroke-linecap="round"/>
<path d="M18.9947 127.54H33.0677V138.055H18.9947C18.6004 138.055 18.2222 137.899 17.9433 137.62C17.6645 137.341 17.5078 136.963 17.5078 136.568V129.026C17.5078 128.831 17.5463 128.638 17.621 128.457C17.6957 128.277 17.8052 128.113 17.9433 127.975C18.0814 127.837 18.2453 127.727 18.4257 127.653C18.6061 127.578 18.7994 127.54 18.9947 127.54Z" fill="#3A3A3A" stroke="#3A3A3A" stroke-miterlimit="10"/>
<path d="M58.4695 135.924H56.1514V138.242H58.4695V135.924Z" fill="white"/>
<path d="M193.692 248.815V227.434C193.692 226.202 192.694 225.204 191.462 225.204H185.689C184.457 225.204 183.458 226.202 183.458 227.434V248.815C183.458 250.047 184.457 251.046 185.689 251.046H191.462C192.694 251.046 193.692 250.047 193.692 248.815Z" stroke="#3A3A3A" stroke-miterlimit="10"/>
<path d="M191.977 249.301V226.947H188.26V249.301H191.977Z" stroke="#3A3A3A" stroke-miterlimit="10"/>
<path d="M186.956 225.204V228.255H183.456V227.434C183.456 226.843 183.691 226.276 184.109 225.858C184.527 225.44 185.094 225.205 185.686 225.205H186.956V225.204Z" fill="#3A3A3A"/>
<path d="M185.891 230.9V228.253H183.457V230.9H185.891Z" fill="#3A3A3A"/>
<path d="M186.958 233.952V230.9H183.458V233.952H186.958Z" fill="#3A3A3A"/>
<path d="M185.893 236.599V233.952H183.459V236.599H185.893Z" fill="#3A3A3A"/>
<path d="M186.958 239.65V236.599H183.458V239.65H186.958Z" fill="#3A3A3A"/>
<path d="M185.891 242.296V239.649H183.457V242.296H185.891Z" fill="#3A3A3A"/>
<path d="M186.958 245.348V242.296H183.458V245.348H186.958Z" fill="#3A3A3A"/>
<path d="M185.893 247.994V245.347H183.459V247.994H185.893Z" fill="#3A3A3A"/>
<path d="M186.958 247.995V251.046H185.687C185.096 251.046 184.529 250.811 184.111 250.393C183.693 249.975 183.458 249.408 183.458 248.817V247.996H186.958V247.995Z" fill="#3A3A3A"/>
<path d="M195.444 250.858V225.388C195.444 224.291 194.555 223.401 193.457 223.401H183.692C182.594 223.401 181.705 224.291 181.705 225.388V250.858C181.705 251.955 182.594 252.845 183.692 252.845H193.457C194.555 252.845 195.444 251.955 195.444 250.858Z" stroke="#3A3A3A" stroke-miterlimit="10"/>
<path d="M169.493 235.754H162.942V240.491H169.493V235.754Z" fill="#3A3A3A"/>
<path d="M175.829 238.123L169.492 232.685V243.562L175.829 238.123Z" fill="#3A3A3A"/>
<path d="M206.525 239.434V245H204.65V230.781H209.895C211.451 230.781 212.668 231.178 213.547 231.973C214.432 232.767 214.875 233.818 214.875 235.127C214.875 236.507 214.442 237.572 213.576 238.32C212.717 239.062 211.483 239.434 209.875 239.434H206.525ZM206.525 237.9H209.895C210.897 237.9 211.665 237.666 212.199 237.197C212.733 236.722 213 236.038 213 235.146C213 234.3 212.733 233.623 212.199 233.115C211.665 232.607 210.933 232.344 210.002 232.324H206.525V237.9ZM227.727 240.488C227.551 241.992 226.994 243.154 226.057 243.975C225.126 244.788 223.885 245.195 222.336 245.195C220.656 245.195 219.309 244.593 218.293 243.389C217.284 242.184 216.779 240.573 216.779 238.555V237.188C216.779 235.866 217.014 234.704 217.482 233.701C217.958 232.699 218.628 231.93 219.494 231.396C220.36 230.856 221.363 230.586 222.502 230.586C224.012 230.586 225.223 231.009 226.135 231.855C227.046 232.695 227.577 233.861 227.727 235.352H225.842C225.679 234.219 225.324 233.398 224.777 232.891C224.237 232.383 223.479 232.129 222.502 232.129C221.304 232.129 220.363 232.572 219.68 233.457C219.003 234.342 218.664 235.602 218.664 237.236V238.613C218.664 240.156 218.986 241.383 219.631 242.295C220.275 243.206 221.177 243.662 222.336 243.662C223.378 243.662 224.175 243.428 224.729 242.959C225.288 242.484 225.66 241.66 225.842 240.488H227.727Z" fill="black"/>
</svg>
