<svg id="Layer_1" data-name="Layer 1" xmlns="http://www.w3.org/2000/svg" viewBox="0 0 108 108">
  <defs>
    <style>
      .cls-1 {
        fill: none;
        stroke: #fff;
        stroke-linecap: round;
        stroke-linejoin: round;
        stroke-width: 3px;
      }

      .cls-2 {
        fill: #fff;
      }
    </style>
  </defs>
  <g>
    <g>
      <path class="cls-1" d="M47.36,61l-20.58.09s-3.28,1-3.26,4.13S27,69,27,69l27.05-.12-4.32,4.37a4.71,4.71,0,0,0,1.17,5.69,4.8,4.8,0,0,0,5.88.63L72.44,64.34l15.34-.07-.11-22-15.61.08s-6.14-4.56-10-4.54L32.57,38s-3.34.76-3.32,3.94,3.46,3.72,3.46,3.72"/>
      <path class="cls-1" d="M47.33,53.33l-23.76.11s-3.36.79-3.35,3.94a3.8,3.8,0,0,0,3,3.73l4.23,0"/>
      <path class="cls-1" d="M47.29,45.57,26,45.66a4,4,0,0,0,0,7.77"/>
    </g>
    <g>
      <line class="cls-1" x1="42.54" y1="37.34" x2="42.54" y2="19.96"/>
      <polygon class="cls-2" points="47.02 21.27 42.54 13.5 38.05 21.27 47.02 21.27"/>
    </g>
    <g>
      <polyline class="cls-1" points="42.27 88.04 42.54 72.6 42.54 68.92"/>
      <polygon class="cls-2" points="46.78 86.81 42.16 94.5 37.8 86.65 46.78 86.81"/>
    </g>
  </g>
</svg>
