<svg id="Layer_1" data-name="Layer 1" xmlns="http://www.w3.org/2000/svg" viewBox="0 0 108 108">
  <defs>
    <style>
      .cls-1, .cls-2 {
        fill: none;
        stroke: #fff;
        stroke-linejoin: round;
        stroke-width: 3px;
      }

      .cls-1 {
        stroke-linecap: round;
      }

      .cls-3 {
        fill: #fff;
      }
    </style>
  </defs>
  <g>
    <g>
      <g>
        <path class="cls-1" d="M53.56,58.32,40.88,42.12s-2.77-2-5.26,0-.83,5.08-.83,5.08L51.46,68.46l-6.11-.75a4.73,4.73,0,0,0-3.78,4.42,4.8,4.8,0,0,0,3.1,5l21.61,3,9.45,12.08L93,78.74,83.41,66.43s-.15-7.63-2.55-10.69L62.7,32.52s-2.64-2.16-5.15-.2-.82,5-.82,5"/>
        <path class="cls-1" d="M59.6,53.6,45,34.89s-2.68-2.17-5.16-.23a3.78,3.78,0,0,0-1.11,4.66l2.61,3.33"/>
        <path class="cls-1" d="M65.71,48.82,52.62,32.08a4,4,0,0,0-6.12,4.78"/>
      </g>
      <path class="cls-1" d="M51,79.07a41.06,41.06,0,0,1-6.54,1.07c-.64,0-1.63,4.85-1.63,4.85s-1.53-5.08-2.15-5.2c-.94-.18-4.45,10.33-4.45,10.33s.29-11.58-.38-11.89A20.68,20.68,0,0,1,33,76.56c-1.21-.83-10.29,7.9-10.29,7.9S28.5,72.34,28,71.61c-.65-.9-7.2.92-7.2.92S25.49,67,25.19,66C24.57,64.1,15,60.87,15,60.87s9.37-3.39,9.57-4.54c.26-1.44-3.13-4.85-3.13-4.85s4.74-.23,5-.69c.42-.84-3.31-6.36-3.31-6.36s5.87,2.42,6.51,1.73c.34-.37.7-.73,1.06-1.07.91-.86.29-5.78.29-5.78s3.31,3.08,3.64,2.89a20.25,20.25,0,0,1,4.56-1.87"/>
    </g>
    <g>
      <path class="cls-2" d="M48.07,15.72a22.23,22.23,0,0,0-10.24,4.65c-2.76,2.11-5.42,5.8-7.39,8.93"/>
      <polygon class="cls-3" points="27.26 25.94 27.25 34.92 35.03 30.44 27.26 25.94"/>
    </g>
  </g>
</svg>
