<svg id="Layer_1" data-name="Layer 1" xmlns="http://www.w3.org/2000/svg" viewBox="0 0 108 108">
  <defs>
    <style>
      .cls-1, .cls-2 {
        fill: none;
        stroke: #fff;
        stroke-linejoin: round;
        stroke-width: 3px;
      }

      .cls-1 {
        stroke-linecap: round;
      }

      .cls-3 {
        fill: #fff;
      }
    </style>
  </defs>
  <g>
    <g>
      <path class="cls-1" d="M41.12,44.87s-3.4.77-4.59-2.18,1.63-4.89,1.63-4.89l3.24-1.31,4-1.6,10.26-4.13c3.61-1.45,11,.51,11,.51l14.48-5.83,8.21,20.39L75.13,51.55l-8.9,19.92a4.81,4.81,0,0,1-5.7,1.59,4.71,4.71,0,0,1-3.19-4.86l2.41-5.66-25.1,10.1s-3.47.73-4.66-2.21,1.51-5,1.51-5l19.09-7.68"/>
      <path class="cls-1" d="M49.41,58.19l-3.92,1.58a3.79,3.79,0,0,1-4.17-2.36c-1.18-2.92,1.66-4.9,1.66-4.9l4.59-1.85"/>
      <path class="cls-1" d="M44.82,43.48l-4.75,1.91a4,4,0,0,0,2.9,7.2"/>
    </g>
    <path class="cls-1" d="M39.76,72a10.57,10.57,0,1,1-4.7-8.78"/>
    <g>
      <line class="cls-2" x1="27.66" y1="41.51" x2="26.02" y2="51.2"/>
      <polygon class="cls-3" points="21.81 49.15 24.94 57.57 30.66 50.66 21.81 49.15"/>
    </g>
  </g>
</svg>
