<svg id="Layer_1" data-name="Layer 1" xmlns="http://www.w3.org/2000/svg" viewBox="0 0 108 108">
  <defs>
    <style>
      .cls-1, .cls-2 {
        fill: none;
        stroke: #fff;
        stroke-linejoin: round;
        stroke-width: 3px;
      }

      .cls-1 {
        stroke-linecap: round;
      }

      .cls-3 {
        fill: #fff;
      }
    </style>
  </defs>
  <g>
    <g>
      <g>
        <path class="cls-1" d="M49.85,56.87,37.17,40.66s-2.77-2-5.26,0-.84,5.08-.84,5.08L47.74,67l-6.1-.74a4.71,4.71,0,0,0-3.78,4.42,4.79,4.79,0,0,0,3.1,5l21.6,3L72,90.82,89.32,77.28,79.7,65s-.15-7.64-2.55-10.7L59,31.07s-2.64-2.17-5.15-.21-.82,5-.82,5"/>
        <path class="cls-1" d="M55.89,52.14,41.25,33.43s-2.68-2.17-5.16-.23A3.78,3.78,0,0,0,35,37.86l2.61,3.33"/>
        <path class="cls-1" d="M62,47.36,48.91,30.62a4,4,0,0,0-6.12,4.78"/>
      </g>
      <path class="cls-1" d="M47.32,76.85A21.67,21.67,0,1,1,34.6,35.44"/>
    </g>
    <g>
      <path class="cls-2" d="M44.36,14.27a22.23,22.23,0,0,0-10.24,4.65c-2.76,2.11-5.43,5.79-7.39,8.92"/>
      <polygon class="cls-3" points="23.55 24.48 23.54 33.46 31.32 28.98 23.55 24.48"/>
    </g>
  </g>
</svg>
