<svg id="Layer_1" data-name="Layer 1" xmlns="http://www.w3.org/2000/svg" xmlns:xlink="http://www.w3.org/1999/xlink" viewBox="0 0 595.28 841.89"><defs><style>.cls-1,.cls-3{fill:none;}.cls-2{fill:#c4c4c4;}.cls-2,.cls-3{stroke:#3a3a3a;stroke-width:2px;}</style></defs><path d="M215.87,457.5h-1.09v-7.23l-2.19.81v-1l3.11-1.16h.17Zm8.76,0H219v-.78l3-3.28a7.79,7.79,0,0,0,.9-1.21,2,2,0,0,0,.25-1,1.58,1.58,0,0,0-.4-1.1,1.4,1.4,0,0,0-1.08-.43,1.67,1.67,0,0,0-1.26.47,1.73,1.73,0,0,0-.45,1.27h-1.08a2.52,2.52,0,0,1,.75-1.9,2.82,2.82,0,0,1,2-.73,2.69,2.69,0,0,1,1.88.63,2.12,2.12,0,0,1,.69,1.66,4.89,4.89,0,0,1-1.61,3l-2.28,2.48h4.28Zm6.49-3.18h-2.86v-.89h2.86Zm7.49,3.18h-1.09v-7.23l-2.18.81v-1l3.1-1.16h.17ZM246,449v.92h-.2a2.89,2.89,0,0,0-2,.75,3.16,3.16,0,0,0-.87,2.05,2.3,2.3,0,0,1,1.84-.78,2.24,2.24,0,0,1,1.78.79,3.45,3.45,0,0,1-.06,4.14,2.65,2.65,0,0,1-3.91-.15,3.79,3.79,0,0,1-.76-2.43v-.41a5.67,5.67,0,0,1,1-3.6,3.72,3.72,0,0,1,3-1.28Zm-1.42,3.85a1.78,1.78,0,0,0-1,.33,1.72,1.72,0,0,0-.65.84v.4a2.79,2.79,0,0,0,.48,1.7,1.41,1.41,0,0,0,1.18.64,1.37,1.37,0,0,0,1.15-.54,2.23,2.23,0,0,0,.42-1.41,2.19,2.19,0,0,0-.43-1.42A1.34,1.34,0,0,0,244.62,452.81Zm9.54,3.92a1.53,1.53,0,0,0,1-.35,1.23,1.23,0,0,0,.48-.88h1a2,2,0,0,1-.38,1,2.42,2.42,0,0,1-.92.78,2.62,2.62,0,0,1-1.22.3,2.66,2.66,0,0,1-2.07-.86,3.51,3.51,0,0,1-.76-2.37v-.18a3.92,3.92,0,0,1,.34-1.65,2.61,2.61,0,0,1,1-1.12,2.8,2.8,0,0,1,1.5-.4,2.56,2.56,0,0,1,1.77.64,2.3,2.3,0,0,1,.76,1.66h-1a1.48,1.48,0,0,0-.47-1,1.44,1.44,0,0,0-1-.4,1.51,1.51,0,0,0-1.28.6,2.82,2.82,0,0,0-.45,1.72v.2a2.74,2.74,0,0,0,.45,1.69A1.51,1.51,0,0,0,254.16,456.73Zm4.76-5.57,0,.7a2.39,2.39,0,0,1,1.89-.82,1.82,1.82,0,0,1,1.81,1,2.44,2.44,0,0,1,.82-.74,2.53,2.53,0,0,1,1.2-.28c1.39,0,2.09.74,2.12,2.21v4.25h-1.09v-4.18a1.43,1.43,0,0,0-.31-1,1.37,1.37,0,0,0-1-.34,1.42,1.42,0,0,0-1.46,1.33v4.21h-1.09v-4.15a1.22,1.22,0,0,0-1.36-1.39,1.47,1.47,0,0,0-1.46.91v4.63h-1.08v-6.34Zm-66.54,17.47h1.18v.89h-1.18v2h-1.09v-2H187.4v-.64l3.82-5.91h1.16Zm-3.75,0h2.66v-4.18l-.13.24Zm6,2.3a.7.7,0,0,1,.17-.47.68.68,0,0,1,1.18.47.61.61,0,0,1-.18.45.67.67,0,0,1-1.17-.45Zm8.54-7.35-3.53,7.92h-1.14l3.52-7.64h-4.62V463h5.77Zm6.57,4.74h-2.86v-.89h2.86ZM218,463v.92h-.2a2.89,2.89,0,0,0-2,.75,3.16,3.16,0,0,0-.87,2.05,2.3,2.3,0,0,1,1.84-.78,2.23,2.23,0,0,1,1.78.79,3.41,3.41,0,0,1-.06,4.14,2.47,2.47,0,0,1-1.92.79,2.44,2.44,0,0,1-2-.94,3.74,3.74,0,0,1-.77-2.43v-.41a5.61,5.61,0,0,1,1-3.6,3.7,3.7,0,0,1,3-1.28Zm-1.42,3.85a1.81,1.81,0,0,0-1.68,1.17v.4a2.79,2.79,0,0,0,.48,1.7,1.42,1.42,0,0,0,1.18.64,1.37,1.37,0,0,0,1.15-.54,2.59,2.59,0,0,0,0-2.83A1.37,1.37,0,0,0,216.54,466.81Zm4,4.12a.7.7,0,0,1,.17-.47.68.68,0,0,1,1.18.47.61.61,0,0,1-.18.45.67.67,0,0,1-1.17-.45Zm4.61-4.22H226a1.82,1.82,0,0,0,1.21-.41,1.35,1.35,0,0,0,.44-1.06,1.32,1.32,0,0,0-1.49-1.5,1.57,1.57,0,0,0-1.13.41,1.39,1.39,0,0,0-.42,1.06h-1.08a2.2,2.2,0,0,1,.74-1.69,2.73,2.73,0,0,1,1.89-.67,2.66,2.66,0,0,1,1.89.64,2.34,2.34,0,0,1,.68,1.78,1.83,1.83,0,0,1-.36,1.07,2.11,2.11,0,0,1-1,.78,2.15,2.15,0,0,1,1.09.74,2.09,2.09,0,0,1,.38,1.26,2.32,2.32,0,0,1-.75,1.82,2.81,2.81,0,0,1-2,.68,2.93,2.93,0,0,1-2-.65,2.18,2.18,0,0,1-.75-1.72h1.09a1.41,1.41,0,0,0,.44,1.08,1.69,1.69,0,0,0,1.18.4,1.62,1.62,0,0,0,1.2-.41,1.55,1.55,0,0,0,.42-1.17,1.44,1.44,0,0,0-.46-1.15,2,2,0,0,0-1.32-.41h-.81Zm9.43,4.79h-1.09v-6.34h1.09Zm-1.18-8a.69.69,0,0,1,.16-.45.73.73,0,0,1,1,0,.64.64,0,0,1,.17.45.64.64,0,0,1-.17.44.76.76,0,0,1-1,0A.68.68,0,0,1,233.44,463.48Zm3.94,1.68,0,.8a2.3,2.3,0,0,1,1.9-.92c1.34,0,2,.76,2,2.27v4.19h-1.08v-4.2a1.47,1.47,0,0,0-.32-1A1.23,1.23,0,0,0,239,466a1.65,1.65,0,0,0-.93.28,2,2,0,0,0-.62.74v4.52h-1.08v-6.34Zm8.14,5.57a1.5,1.5,0,0,0,1-.35,1.23,1.23,0,0,0,.48-.88h1a2,2,0,0,1-.37,1,2.45,2.45,0,0,1-.93.78,2.59,2.59,0,0,1-1.22.3,2.63,2.63,0,0,1-2.06-.86,3.46,3.46,0,0,1-.76-2.37v-.18a3.77,3.77,0,0,1,.34-1.65,2.59,2.59,0,0,1,1-1.12,2.82,2.82,0,0,1,1.5-.4,2.53,2.53,0,0,1,1.77.64,2.26,2.26,0,0,1,.76,1.66h-1a1.47,1.47,0,0,0-1.5-1.41,1.52,1.52,0,0,0-1.28.6,2.82,2.82,0,0,0-.45,1.72v.2a2.74,2.74,0,0,0,.45,1.69A1.51,1.51,0,0,0,245.52,470.73Zm4.82-4.8a2.32,2.32,0,0,1,1.88-.89c1.34,0,2,.76,2,2.27v4.19h-1.09v-4.2a1.42,1.42,0,0,0-.32-1,1.23,1.23,0,0,0-1-.33,1.65,1.65,0,0,0-.93.28,2,2,0,0,0-.62.74v4.52h-1.08v-9h1.08Zm8.16,5.69a2.76,2.76,0,0,1-2.1-.85,3.13,3.13,0,0,1-.81-2.26v-.2a3.85,3.85,0,0,1,.36-1.69,2.86,2.86,0,0,1,1-1.16,2.52,2.52,0,0,1,1.4-.42,2.37,2.37,0,0,1,1.93.82,3.56,3.56,0,0,1,.68,2.33v.45h-4.29a2.23,2.23,0,0,0,.54,1.52,1.75,1.75,0,0,0,1.34.57,2,2,0,0,0,1-.23,2.58,2.58,0,0,0,.7-.62l.66.51A2.66,2.66,0,0,1,258.5,471.62Zm-.14-5.69a1.46,1.46,0,0,0-1.1.48,2.39,2.39,0,0,0-.55,1.34h3.18v-.08a2,2,0,0,0-.45-1.28A1.36,1.36,0,0,0,258.36,465.93Zm7.56,3.89a.78.78,0,0,0-.33-.68,3,3,0,0,0-1.16-.42,5.32,5.32,0,0,1-1.3-.43,1.86,1.86,0,0,1-.72-.58,1.45,1.45,0,0,1-.23-.81,1.65,1.65,0,0,1,.66-1.32,2.58,2.58,0,0,1,1.69-.54,2.62,2.62,0,0,1,1.74.56A1.77,1.77,0,0,1,267,467h-1.09a1,1,0,0,0-.38-.76,1.39,1.39,0,0,0-1-.33,1.51,1.51,0,0,0-.93.26.82.82,0,0,0-.33.68.66.66,0,0,0,.31.59,3.91,3.91,0,0,0,1.12.38,5.84,5.84,0,0,1,1.32.43,1.91,1.91,0,0,1,.74.61,1.5,1.5,0,0,1,.25.86,1.65,1.65,0,0,1-.68,1.37,2.88,2.88,0,0,1-1.77.51,3.18,3.18,0,0,1-1.34-.27,2.21,2.21,0,0,1-.92-.75,1.86,1.86,0,0,1-.33-1.05h1.08a1.16,1.16,0,0,0,.44.87,1.7,1.7,0,0,0,1.07.31,1.81,1.81,0,0,0,1-.24A.77.77,0,0,0,265.92,469.82Z"/><rect class="cls-1" x="257.6" y="247.5" width="151" height="346"/><rect class="cls-2" x="294.6" y="515.5" width="68" height="16" rx="4"/><path class="cls-3" d="M278.6,404.5V518"/><image width="151" height="346" transform="translate(258.1 245)" xlink:href="../../../../Downloads/Arm-01%201.png"/></svg>