<svg width="20" height="18" viewBox="0 0 20 18" fill="none" xmlns="http://www.w3.org/2000/svg">
<path d="M15 13.99C13.65 13.99 12.8 14.41 12.05 14.79C11.4 15.12 10.87 15.39 10 15.39C9.1 15.39 8.6 15.14 7.95 14.79C7.2 14.41 6.38 13.99 5 13.99C3.62 13.99 2.8 14.41 2.05 14.79C1.4 15.12 0.88 15.39 0 15.39V17.34C1.35 17.34 2.2 16.92 2.95 16.54C3.6 16.21 4.12 15.94 5 15.94C5.88 15.94 6.4 16.19 7.05 16.54C7.8 16.92 8.62 17.34 10 17.34C11.38 17.34 12.2 16.92 12.95 16.54C13.6 16.21 14.13 15.94 15 15.94C15.9 15.94 16.4 16.19 17.05 16.54C17.8 16.92 18.63 17.34 20 17.34V15.39C19.1 15.39 18.6 15.14 17.95 14.79C17.2 14.41 16.35 13.99 15 13.99ZM15 9.54C13.65 9.54 12.8 9.97 12.05 10.34C11.4 10.66 10.87 10.94 10 10.94C9.1 10.94 8.6 10.69 7.95 10.34C7.2 9.96 6.38 9.54 5 9.54C3.62 9.54 2.8 9.97 2.05 10.34C1.4 10.66 0.88 10.94 0 10.94V12.89C1.35 12.89 2.2 12.46 2.95 12.09C3.6 11.74 4.1 11.49 5 11.49C5.9 11.49 6.4 11.74 7.05 12.09C7.8 12.47 8.62 12.89 10 12.89C11.38 12.89 12.2 12.46 12.95 12.09C13.6 11.74 14.1 11.49 15 11.49C15.9 11.49 16.4 11.74 17.05 12.09C17.8 12.47 18.63 12.89 20 12.89V10.94C19.1 10.94 18.6 10.69 17.95 10.34C17.2 9.96 16.35 9.54 15 9.54ZM17.95 1.46C17.2 1.08 16.37 0.660004 15 0.660004C13.63 0.660004 12.8 1.08 12.05 1.46C11.4 1.78 10.87 2.06 10 2.06C9.1 2.06 8.6 1.81 7.95 1.46C7.2 1.09 6.38 0.660004 5 0.660004C3.62 0.660004 2.8 1.08 2.05 1.46C1.4 1.79 0.88 2.06 0 2.06V3.99C1.35 3.99 2.2 3.56 2.95 3.19C3.6 2.86 4.12 2.59 5 2.59C5.88 2.59 6.4 2.84 7.05 3.19C7.8 3.57 8.62 3.99 10 3.99C11.38 3.99 12.2 3.56 12.95 3.19C13.6 2.87 14.13 2.59 15 2.59C15.9 2.59 16.4 2.84 17.05 3.19C17.8 3.57 18.63 3.99 20 3.99V2.04C19.1 2.04 18.6 1.79 17.95 1.46ZM15 5.09C13.65 5.09 12.8 5.52 12.05 5.89C11.4 6.24 10.9 6.49 10 6.49C9.1 6.49 8.6 6.24 7.95 5.89C7.2 5.51 6.38 5.09 5 5.09C3.62 5.09 2.8 5.52 2.05 5.89C1.4 6.24 0.9 6.49 0 6.49V8.44C1.35 8.44 2.2 8.01 2.95 7.64C3.6 7.32 4.13 7.04 5 7.04C5.87 7.04 6.4 7.29 7.05 7.64C7.8 8.02 8.62 8.44 10 8.44C11.38 8.44 12.2 8.01 12.95 7.64C13.6 7.32 14.13 7.04 15 7.04C15.9 7.04 16.4 7.29 17.05 7.64C17.8 8.02 18.63 8.44 20 8.44V6.49C19.1 6.49 18.6 6.24 17.95 5.89C17.2 5.51 16.35 5.09 15 5.09Z" fill="black"/>
</svg>
