<svg width="20" height="21" viewBox="0 0 20 21" fill="none" xmlns="http://www.w3.org/2000/svg">
<path d="M10.5001 7H9.00013V13L13.7501 15.85L14.5001 14.62L10.5001 12.25V7ZM15.3371 0.809998L19.9441 4.655L18.6641 6.19L14.0541 2.347L15.3371 0.809998ZM4.66313 0.809998L5.94513 2.346L1.33713 6.19L0.0571289 4.654L4.66313 0.809998ZM10.0001 3C5.03013 3 1.00013 7.03 1.00013 12C1.00013 16.97 5.03013 21 10.0001 21C14.9701 21 19.0001 16.97 19.0001 12C19.0001 7.03 14.9701 3 10.0001 3ZM10.0001 19C6.14013 19 3.00013 15.86 3.00013 12C3.00013 8.14 6.14013 5 10.0001 5C13.8601 5 17.0001 8.14 17.0001 12C17.0001 15.86 13.8601 19 10.0001 19Z" fill="black"/>
</svg>
