<svg width="150" height="150" viewBox="0 0 150 150" fill="none" xmlns="http://www.w3.org/2000/svg">
<path d="M53.0693 57.3333H69.736C69.736 57.3333 73.2498 58.0278 73.2498 62.5833C73.2498 67.1389 69.9582 67.9722 69.9582 67.9722H53.0693C51.8756 67.6841 50.8135 67.0028 50.0538 66.038C49.2942 65.0731 48.8811 63.8808 48.8811 62.6528C48.8811 61.4248 49.2942 60.2325 50.0538 59.2676C50.8135 58.3028 51.8756 57.6215 53.0693 57.3333V57.3333Z" stroke="white" stroke-width="3" stroke-linecap="round" stroke-linejoin="round"/>
<path d="M53.0694 67.9722H69.7361C69.7361 67.9722 73.25 68.6666 73.25 73.2222C73.25 77.7778 69.9583 78.5972 69.9583 78.5972H53.0694C51.8821 78.3039 50.8273 77.6213 50.0733 76.6584C49.3194 75.6954 48.9097 74.5077 48.9097 73.2847C48.9097 72.0617 49.3194 70.874 50.0733 69.911C50.8273 68.9481 51.8821 68.2655 53.0694 67.9722V67.9722Z" stroke="white" stroke-width="3" stroke-linecap="round" stroke-linejoin="round"/>
<path d="M53.0693 78.5973H69.736C69.736 78.5973 73.2498 79.3056 73.2498 83.8611C73.2498 88.4167 69.9582 89.2361 69.9582 89.2361H53.0693C51.8756 88.948 50.8135 88.2667 50.0538 87.3019C49.2942 86.337 48.8811 85.1447 48.8811 83.9167C48.8811 82.6887 49.2942 81.4964 50.0538 80.5315C50.8135 79.5667 51.8756 78.8854 53.0693 78.5973V78.5973Z" stroke="white" stroke-width="3" stroke-linecap="round" stroke-linejoin="round"/>
<path d="M53.5693 89.2361H70.236C70.236 89.2361 73.7498 89.9444 73.7498 94.5C73.7498 99.0556 70.4582 99.875 70.4582 99.875H53.5693C52.3756 99.5869 51.3135 98.9056 50.5538 97.9407C49.7941 96.9759 49.3811 95.7836 49.3811 94.5556C49.3811 93.3275 49.7941 92.1352 50.5538 91.1704C51.3135 90.2055 52.3756 89.5243 53.5693 89.2361V89.2361Z" stroke="white" stroke-width="3" stroke-linecap="round" stroke-linejoin="round"/>
<path d="M101.291 99.875H127.097V60.1806H120.403C118.948 60.1912 117.511 59.8703 116.199 59.2422C114.888 58.6141 113.736 57.6953 112.833 56.5556L105.889 49.6111C102.097 45.8334 99.6386 46.5417 99.6386 46.5417H81.2498V51.3889C81.2498 51.3889 82.1386 58.5278 90.7914 58.5278H98.1386" stroke="white" stroke-width="3" stroke-linecap="round" stroke-linejoin="round"/>
<path d="M92.6247 58.5416C93.0015 59.0834 93.4718 59.5537 94.0136 59.9305C100.041 64.0972 103.903 73.8194 104.153 79.8611C105.166 102.778 92.4442 112.653 85.6942 114.972C78.9442 117.292 70.1108 115.972 67.3331 114.319C65.4836 113.146 63.9496 111.537 62.865 109.635C61.7803 107.732 61.1781 105.592 61.1108 103.403C61.1585 102.208 61.3497 101.024 61.6803 99.875" stroke="white" stroke-width="3" stroke-linecap="round" stroke-linejoin="round"/>
<path d="M57.9025 57.3333C57.4222 56.2458 57.0996 55.0953 56.9442 53.9167C56.3192 47.7639 57.4442 43.9444 61.597 39.7917C65.7498 35.6389 71.6664 34.0833 78.1248 33.8056C83.2637 33.5833 89.3053 34.8194 92.6248 41.2361C93.3828 42.796 93.6538 44.5479 93.4025 46.2639" stroke="white" stroke-width="3" stroke-linecap="round" stroke-linejoin="round"/>
<path d="M20.0693 78.2083L33.6249 78.4445" stroke="white" stroke-width="3" stroke-linejoin="round"/>
<path d="M31.6943 84.6528L42.5971 78.5972L31.9166 72.1805L31.6943 84.6528Z" fill="white"/>
<path d="M129.931 36.0555L117.472 41.4028" stroke="white" stroke-width="3" stroke-linejoin="round"/>
<path d="M116.694 34.9583L109.222 44.9305L121.597 46.4166L116.694 34.9583Z" fill="white"/>
</svg>
