<svg id="Layer_1" data-name="Layer 1" xmlns="http://www.w3.org/2000/svg" viewBox="0 0 108 108">
  <defs>
    <style>
      .cls-1 {
        fill: none;
        stroke: #000;
        stroke-linecap: round;
        stroke-linejoin: round;
        stroke-width: 3px;
      }
    </style>
  </defs>
  <g>
    <g>
      <path class="cls-1" d="M71,47.48l-.23-20.57s.07-2.7-3.09-2.67a3.15,3.15,0,0,0-3.25,3.07l0,29.72a4,4,0,0,1-3.89-2.36c-1-2.6,0-10-2.47-12.35s-4.73-1-4.73-1l.43,15.53S54.13,65.66,58,68.2s4.94,4.26,4.94,4.26l.18,15.34,19.53-.22V72.08s4.65-6.54,4.61-10.42-.63-29.42-.63-29.42.37-3-1.81-3-2.17,2.83-2.17,2.83"/>
      <path class="cls-1" d="M77,47.28l-.27-23.76s0-3.35-3.12-3.32S70.8,24,70.8,24l.06,4.23"/>
      <path class="cls-1" d="M82.62,47.19,82.39,27s.42-4-2.79-3.93a2.66,2.66,0,0,0-2.73,3.18"/>
    </g>
    <g>
      <line class="cls-1" x1="44.61" y1="53.8" x2="27.23" y2="53.8"/>
      <polygon points="28.55 49.31 20.77 53.8 28.55 58.29 28.55 49.31"/>
    </g>
  </g>
</svg>
