<svg width="21" height="20" viewBox="0 0 21 20" fill="none" xmlns="http://www.w3.org/2000/svg">
<path d="M12.17 11.71L13.57 9.29C13.66 9.14 13.62 8.95 13.49 8.84L12.01 7.68C12.04 7.46 12.06 7.23 12.06 7C12.06 6.77 12.04 6.54 12.01 6.31L13.49 5.15C13.62 5.04 13.66 4.85 13.57 4.7L12.17 2.28C12.08 2.13 11.9 2.07 11.74 2.13L10 2.83C9.64 2.55 9.25 2.32 8.82 2.14L8.56 0.29C8.53 0.13 8.38 0 8.21 0H5.41C5.24 0 5.09 0.13 5.06 0.3L4.8 2.15C4.38 2.33 3.98 2.56 3.62 2.84L1.88 2.14C1.72 2.08 1.54 2.14 1.45 2.29L0.0500033 4.71C-0.0399967 4.86 3.48687e-06 5.05 0.130003 5.16L1.61 6.32C1.58 6.54 1.56 6.77 1.56 7C1.56 7.23 1.58 7.46 1.61 7.69L0.130003 8.85C3.48687e-06 8.96 -0.0399967 9.15 0.0500033 9.3L1.45 11.72C1.54 11.87 1.72 11.93 1.88 11.87L3.62 11.17C3.98 11.45 4.37 11.68 4.8 11.86L5.06 13.71C5.09 13.87 5.24 14 5.41 14H8.21C8.38 14 8.53 13.87 8.56 13.7L8.82 11.85C9.24 11.67 9.64 11.44 10 11.16L11.74 11.86C11.9 11.92 12.08 11.86 12.17 11.71ZM6.81 9C5.71 9 4.81 8.1 4.81 7C4.81 5.9 5.71 5 6.81 5C7.91 5 8.81 5.9 8.81 7C8.81 8.1 7.91 9 6.81 9Z" fill="white"/>
<path d="M19.9202 16.67L18.9602 15.93C18.9802 15.79 19.0002 15.64 19.0002 15.49C19.0002 15.34 18.9902 15.19 18.9602 15.05L19.9102 14.31C19.9902 14.24 20.0202 14.12 19.9602 14.02L19.0602 12.47C19.0102 12.37 18.8902 12.34 18.7802 12.37L17.6702 12.82C17.4402 12.64 17.1902 12.49 16.9102 12.38L16.7402 11.2C16.7302 11.08 16.6302 11 16.5302 11H14.7402C14.6302 11 14.5302 11.08 14.5202 11.19L14.3502 12.37C14.0802 12.49 13.8202 12.63 13.5902 12.81L12.4802 12.36C12.3802 12.32 12.2602 12.36 12.2002 12.46L11.3002 14.01C11.2502 14.11 11.2602 14.23 11.3502 14.3L12.3002 15.04C12.2802 15.18 12.2702 15.33 12.2702 15.48C12.2702 15.63 12.2802 15.78 12.3002 15.92L11.3502 16.66C11.2702 16.73 11.2402 16.85 11.3002 16.95L12.2002 18.5C12.2502 18.6 12.3702 18.63 12.4802 18.6L13.5902 18.15C13.8202 18.33 14.0702 18.48 14.3502 18.59L14.5202 19.77C14.5402 19.88 14.6302 19.96 14.7402 19.96H16.5302C16.6402 19.96 16.7402 19.88 16.7502 19.77L16.9202 18.59C17.1902 18.47 17.4502 18.33 17.6702 18.15L18.7902 18.6C18.8902 18.64 19.0102 18.6 19.0702 18.5L19.9702 16.95C20.0302 16.86 20.0002 16.74 19.9202 16.67ZM15.6302 16.83C14.8902 16.83 14.2802 16.23 14.2802 15.48C14.2802 14.73 14.8802 14.13 15.6302 14.13C16.3802 14.13 16.9802 14.73 16.9802 15.48C16.9802 16.23 16.3702 16.83 15.6302 16.83Z" fill="white"/>
</svg>
