<svg width="24" height="24" viewBox="0 0 24 24" fill="none" xmlns="http://www.w3.org/2000/svg">
<path d="M16.0562 3.346L17.3382 1.811L21.9452 5.661L20.6652 7.201L16.0562 3.346ZM3.33615 7.19L2.05615 5.654L6.66215 1.81L7.94215 3.346L3.33615 7.19ZM12.0002 6C15.8602 6 19.0002 9.14 19.0002 13C19.0002 16.86 15.8602 20 12.0002 20C8.14015 20 5.00015 16.86 5.00015 13C5.00015 9.14 8.14015 6 12.0002 6ZM12.0002 4C7.03015 4 3.00015 8.03 3.00015 13C3.00015 17.97 7.03015 22 12.0002 22C16.9702 22 21.0002 17.97 21.0002 13C21.0002 8.03 16.9702 4 12.0002 4Z" fill="black"/>
<path d="M12.0806 14.1372H10.7969V17H9.18555V9.17969H12.0913C13.0151 9.17969 13.7277 9.38558 14.229 9.79736C14.7303 10.2091 14.981 10.791 14.981 11.543C14.981 12.0765 14.8646 12.5223 14.6318 12.8804C14.4027 13.2349 14.0535 13.5177 13.5845 13.729L15.2764 16.9248V17H13.5469L12.0806 14.1372ZM10.7969 12.832H12.0967C12.5013 12.832 12.8146 12.73 13.0366 12.5259C13.2586 12.3182 13.3696 12.0335 13.3696 11.6719C13.3696 11.3031 13.264 11.013 13.0527 10.8018C12.8451 10.5905 12.5246 10.4849 12.0913 10.4849H10.7969V12.832Z" fill="black"/>
</svg>
