<svg width="20" height="16" viewBox="0 0 20 16" fill="none" xmlns="http://www.w3.org/2000/svg">
<path d="M1.61983 4.57L2.84983 6.42C2.25665 7.60307 1.96625 8.91483 2.00465 10.2377C2.04304 11.5606 2.40903 12.8533 3.06983 14H16.9298C17.7887 12.5101 18.1445 10.7831 17.9447 9.07507C17.7448 7.36701 16.9999 5.76882 15.8203 4.51743C14.6408 3.26603 13.0894 2.42804 11.3961 2.1277C9.70282 1.82735 7.95783 2.08063 6.41983 2.85L4.56983 1.62C6.45334 0.412215 8.68751 -0.128996 10.9149 0.0829355C13.1424 0.294867 15.2344 1.2477 16.8563 2.78901C18.4783 4.33033 19.5365 6.37107 19.8616 8.58481C20.1868 10.7986 19.7601 13.0574 18.6498 15C18.4753 15.3023 18.2247 15.5536 17.923 15.7291C17.6213 15.9045 17.2789 15.9979 16.9298 16H3.07983C2.72741 16.0014 2.38088 15.9096 2.07532 15.734C1.76977 15.5584 1.51604 15.3052 1.33983 15C0.418451 13.4039 -0.0439396 11.5843 0.00370598 9.74195C0.0513515 7.89964 0.607183 6.10632 1.60983 4.56L1.61983 4.57ZM11.4098 11.41C11.2241 11.596 11.0035 11.7435 10.7607 11.8441C10.5179 11.9448 10.2577 11.9966 9.99483 11.9966C9.732 11.9966 9.47174 11.9448 9.22895 11.8441C8.98615 11.7435 8.76557 11.596 8.57983 11.41L2.91983 2.92L11.4098 8.58C11.5958 8.76575 11.7433 8.98632 11.8439 9.22912C11.9446 9.47191 11.9964 9.73217 11.9964 9.995C11.9964 10.2578 11.9446 10.5181 11.8439 10.7609C11.7433 11.0037 11.5958 11.2243 11.4098 11.41Z" fill="#3A3A3A"/>
</svg>
