<svg width="101" height="109" viewBox="0 0 101 109" fill="none" xmlns="http://www.w3.org/2000/svg">
<path d="M50.4616 10.0766C10.077 10.0766 10.077 42.3843 10.077 42.3843V82.7688C10.077 82.7688 10.077 98.9226 27.3449 98.9226H74.6923C90.8461 98.9226 90.8461 82.7688 90.8461 82.7688V42.3843C90.8461 42.3843 90.8461 10.0766 50.4616 10.0766Z" stroke="#3A3A3A" stroke-width="4" stroke-miterlimit="10" stroke-linecap="round"/>
<path d="M10.4482 50.2752C10.4482 50.2752 10.4482 63.5511 24.9309 63.5511H78.0343C91.3101 63.5511 91.3101 50.2752 91.3101 50.2752" stroke="#3A3A3A" stroke-width="4" stroke-miterlimit="10" stroke-linecap="round"/>
<path d="M60.5576 98.9231V102.962C60.5576 102.962 60.5576 107 55.5051 107H45.4179C40.3654 107 40.3654 102.962 40.3654 102.962V98.9231" stroke="#3A3A3A" stroke-width="4" stroke-miterlimit="10" stroke-linecap="round"/>
<path d="M10.4483 58.7245C10.4483 58.7245 2 58.7245 2 50.6785V34.5866" stroke="#3A3A3A" stroke-width="4" stroke-miterlimit="10" stroke-linecap="round"/>
<path d="M91.3102 58.7245C91.3102 58.7245 98.5516 58.7245 98.5516 50.6785V34.5866" stroke="#3A3A3A" stroke-width="4" stroke-miterlimit="10" stroke-linecap="round"/>
<path d="M26.2308 42.3843C26.2308 42.3843 26.2308 34.3074 34.3077 34.3074C42.3846 34.3074 42.3846 42.3843 42.3846 42.3843" stroke="#3A3A3A" stroke-width="4" stroke-miterlimit="10" stroke-linecap="round"/>
<path d="M58.5384 42.2687C58.5384 42.2687 58.5384 34.1918 66.6153 34.1918C74.6922 34.1918 74.6922 42.2687 74.6922 42.2687" stroke="#3A3A3A" stroke-width="4" stroke-miterlimit="10" stroke-linecap="round"/>
<path d="M50.4615 10.0769V2" stroke="#3A3A3A" stroke-width="4" stroke-miterlimit="10" stroke-linecap="round"/>
</svg>
