<svg id="Layer_1" data-name="Layer 1" xmlns="http://www.w3.org/2000/svg" viewBox="0 0 108 108">
  <defs>
    <style>
      .cls-1, .cls-2 {
        fill: none;
        stroke: #000;
        stroke-linejoin: round;
        stroke-width: 3px;
      }

      .cls-1 {
        stroke-linecap: round;
      }
    </style>
  </defs>
  <g>
    <g>
      <path class="cls-1" d="M29.82,46.54h9.25s2,.51,2,3.79-1.83,3.87-1.83,3.87H29.82s-2.31-.59-2.31-3.83S29.82,46.54,29.82,46.54Z"/>
      <path class="cls-1" d="M29.82,54.2h9.25s2,.51,2,3.79-1.83,3.87-1.83,3.87H29.82s-2.31-.59-2.31-3.83S29.82,54.2,29.82,54.2Z"/>
      <path class="cls-1" d="M29.82,61.86h9.25s2,.5,2,3.79-1.83,3.87-1.83,3.87H29.82s-2.31-.59-2.31-3.83S29.82,61.86,29.82,61.86Z"/>
      <path class="cls-1" d="M30.09,69.52h9.26s1.94.5,1.94,3.78-1.82,3.88-1.82,3.88H30.09s-2.31,0-2.31-3.83C27.78,70.11,30.09,69.52,30.09,69.52Z"/>
      <path class="cls-1" d="M63.75,77.18H85.87V48.6H81.05A6.89,6.89,0,0,1,75.6,46l-5-5c-2.73-2.73-4.5-2.21-4.5-2.21H52.86v3.47s.64,5.13,6.87,5.13H65"/>
      <path class="cls-1" d="M34.76,46.54c2.08-6.92,6.68-11.87,12.43-12.41,4-.38,7.79,1.42,10.88,4.68"/>
      <path class="cls-1" d="M63,47.37a41.54,41.54,0,0,1,2.19,10C66.52,71.82,60.63,84.16,52,85c-4.68.44-9.2-2.59-12.58-7.76"/>
    </g>
    <g>
      <path class="cls-2" d="M24.9,29.32c2-3.33,5.11-7.27,9.56-9.43a22.21,22.21,0,0,1,12.88-1.52"/>
      <polygon points="29.61 30.19 22.14 35.16 21.57 26.2 29.61 30.19"/>
      <polygon points="44.99 22.56 53.59 20 47.07 13.83 44.99 22.56"/>
    </g>
  </g>
</svg>
