<svg width="150" height="150" viewBox="0 0 150 150" fill="none" xmlns="http://www.w3.org/2000/svg">
<path d="M41.4166 64.6389H54.2638C54.2638 64.6389 57.0416 65.3472 57.0416 69.9028C57.0416 74.4583 54.4999 75.2778 54.4999 75.2778H41.4166C41.4166 75.2778 38.2083 74.4583 38.2083 69.9583C38.2083 65.4583 41.4166 64.6389 41.4166 64.6389Z" stroke="white" stroke-width="3" stroke-linecap="round" stroke-linejoin="round"/>
<path d="M41.4166 75.2778H54.2638C54.2638 75.2778 57.0416 75.9861 57.0416 80.5416C57.0416 85.0972 54.4999 85.9166 54.4999 85.9166H41.4166C41.4166 85.9166 38.2083 85.0972 38.2083 80.5972C38.2083 76.0972 41.4166 75.2778 41.4166 75.2778Z" stroke="white" stroke-width="3" stroke-linecap="round" stroke-linejoin="round"/>
<path d="M41.4166 85.9167H54.2638C54.2638 85.9167 57.0416 86.6111 57.0416 91.1806C57.0416 95.75 54.4999 96.5556 54.4999 96.5556H41.4166C41.4166 96.5556 38.2083 95.7361 38.2083 91.2361C38.2083 86.7361 41.4166 85.9167 41.4166 85.9167Z" stroke="white" stroke-width="3" stroke-linecap="round" stroke-linejoin="round"/>
<path d="M41.7916 96.5556H54.6527C54.6527 96.5556 57.3471 97.25 57.3471 101.806C57.3471 106.361 54.8194 107.194 54.8194 107.194H41.7916C41.7916 107.194 38.5833 107.194 38.5833 101.875C38.5833 97.375 41.7916 96.5556 41.7916 96.5556Z" stroke="white" stroke-width="3" stroke-linecap="round" stroke-linejoin="round"/>
<path d="M88.5415 107.194H119.264V67.5H112.569C111.116 67.5123 109.679 67.1935 108.368 66.5679C107.056 65.9422 105.905 65.026 105 63.8889L98.0554 56.9445C94.2637 53.1528 91.8054 53.875 91.8054 53.875H73.4165V58.6945C73.4165 58.6945 74.3054 65.8195 82.9582 65.8195H90.2776" stroke="white" stroke-width="3" stroke-linecap="round" stroke-linejoin="round"/>
<path d="M48.2776 64.6389C51.1665 55.0278 57.5554 48.1528 65.5415 47.4028C71.097 46.875 76.3609 49.375 80.6526 53.9028" stroke="white" stroke-width="3" stroke-linecap="round" stroke-linejoin="round"/>
<path d="M87.5 65.7917C89.0827 70.2782 90.1043 74.9433 90.5417 79.6806C92.3889 99.75 84.2083 116.889 72.2222 118.056C65.7222 118.667 59.4444 114.458 54.75 107.278" stroke="white" stroke-width="3" stroke-linecap="round" stroke-linejoin="round"/>
<path d="M34.5833 40.7222C37.361 36.0972 41.6805 30.625 47.861 27.625C53.4812 25.1572 59.7097 24.4221 65.7499 25.5139" stroke="white" stroke-width="3" stroke-linejoin="round"/>
<path d="M41.1249 41.9306L30.7499 48.8334L29.9583 36.389L41.1249 41.9306Z" fill="white"/>
<path d="M62.4861 31.3334L74.4305 27.7778L65.375 19.2084L62.4861 31.3334Z" fill="white"/>
</svg>
