<svg id="Layer_1" data-name="Layer 1" xmlns="http://www.w3.org/2000/svg" viewBox="0 0 108 108">
  <defs>
    <style>
      .cls-1, .cls-2 {
        fill: none;
        stroke: #000;
        stroke-linejoin: round;
        stroke-width: 3px;
      }

      .cls-1 {
        stroke-linecap: round;
      }
    </style>
  </defs>
  <g>
    <g>
      <path class="cls-1" d="M41.59,38.91s-3.44-.54-3.46-3.72,3.3-3.95,3.3-3.95l3.5,0,4.33,0,11.05-.08c3.89,0,10,4.5,10,4.5L86,35.5l.17,22-15.34.12L55.21,72.85a4.78,4.78,0,0,1-5.88-.61,4.71,4.71,0,0,1-1.2-5.69l4.32-4.38-27.06.2s-3.49-.6-3.52-3.76,3.26-4.14,3.26-4.14l20.57-.15"/>
      <path class="cls-1" d="M44.43,54.33l-4.23,0a3.8,3.8,0,0,1-3-3.72c0-3.15,3.34-4,3.34-4l4.95,0"/>
      <path class="cls-1" d="M45.55,39l-5.12,0a4,4,0,0,0,.06,7.76"/>
    </g>
    <g>
      <line class="cls-2" x1="26.09" y1="62.89" x2="26.23" y2="70.44"/>
      <polygon points="21.72 69.2 26.35 76.89 30.7 69.04 21.72 69.2"/>
    </g>
    <g>
      <line class="cls-2" x1="26.22" y1="53.76" x2="26.08" y2="46.22"/>
      <polygon points="30.59 47.45 25.96 39.76 21.62 47.62 30.59 47.45"/>
    </g>
  </g>
</svg>
